<svg id="svg" xmlns="http://www.w3.org/2000/svg" xmlns:xlink="http://www.w3.org/1999/xlink" width="400" height="400" viewBox="0, 0, 400,400" version="1.1"><g id="svgg"><path id="path0" d="M197.929 5.717 C 197.638 6.001,196.815 6.473,196.100 6.765 C 195.385 7.058,194.800 7.419,194.800 7.568 C 194.800 7.717,194.170 8.067,193.400 8.346 C 192.630 8.624,192.000 8.984,192.000 9.146 C 192.000 9.307,191.370 9.667,190.600 9.946 C 189.830 10.224,189.200 10.620,189.200 10.826 C 189.200 11.032,188.943 11.200,188.629 11.200 C 188.314 11.200,187.819 11.433,187.529 11.717 C 187.238 12.001,186.415 12.473,185.700 12.765 C 184.985 13.058,184.400 13.419,184.400 13.568 C 184.400 13.717,183.770 14.067,183.000 14.346 C 182.230 14.624,181.600 14.984,181.600 15.146 C 181.600 15.307,180.970 15.667,180.200 15.946 C 179.430 16.224,178.800 16.620,178.800 16.826 C 178.800 17.032,178.543 17.200,178.229 17.200 C 177.914 17.200,177.419 17.433,177.129 17.717 C 176.838 18.001,176.015 18.473,175.300 18.765 C 174.585 19.058,174.000 19.419,174.000 19.568 C 174.000 19.717,173.370 20.067,172.600 20.346 C 171.830 20.624,171.200 20.984,171.200 21.146 C 171.200 21.307,170.570 21.667,169.800 21.946 C 169.030 22.224,168.400 22.620,168.400 22.826 C 168.400 23.032,168.143 23.200,167.829 23.200 C 167.514 23.200,167.019 23.433,166.729 23.717 C 166.438 24.001,165.615 24.473,164.900 24.765 C 164.185 25.058,163.600 25.419,163.600 25.568 C 163.600 25.717,162.970 26.067,162.200 26.346 C 161.430 26.624,160.800 27.020,160.800 27.226 C 160.800 27.432,160.543 27.600,160.229 27.600 C 159.914 27.600,159.419 27.833,159.129 28.117 C 158.838 28.401,158.015 28.873,157.300 29.165 C 156.585 29.458,156.000 29.819,156.000 29.968 C 156.000 30.117,155.370 30.467,154.600 30.746 C 153.830 31.024,153.200 31.384,153.200 31.546 C 153.200 31.707,152.570 32.067,151.800 32.346 C 151.030 32.624,150.400 33.020,150.400 33.226 C 150.400 33.432,150.143 33.600,149.829 33.600 C 149.514 33.600,149.019 33.833,148.729 34.117 C 148.438 34.401,147.615 34.873,146.900 35.165 C 146.185 35.458,145.600 35.819,145.600 35.968 C 145.600 36.117,144.970 36.467,144.200 36.746 C 143.430 37.024,142.800 37.384,142.800 37.546 C 142.800 37.707,142.170 38.067,141.400 38.346 C 140.630 38.624,140.000 39.020,140.000 39.226 C 140.000 39.432,139.743 39.600,139.429 39.600 C 139.114 39.600,138.619 39.833,138.329 40.117 C 138.038 40.401,137.215 40.873,136.500 41.165 C 135.785 41.458,135.200 41.819,135.200 41.968 C 135.200 42.117,134.570 42.467,133.800 42.746 C 133.030 43.024,132.400 43.420,132.400 43.626 C 132.400 43.832,132.143 44.000,131.829 44.000 C 131.514 44.000,131.019 44.233,130.729 44.517 C 130.438 44.801,129.615 45.273,128.900 45.565 C 128.185 45.858,127.600 46.219,127.600 46.368 C 127.600 46.517,126.970 46.867,126.200 47.146 C 125.430 47.424,124.800 47.784,124.800 47.946 C 124.800 48.107,124.170 48.467,123.400 48.746 C 122.630 49.024,122.000 49.420,122.000 49.626 C 122.000 49.832,121.743 50.000,121.429 50.000 C 121.114 50.000,120.619 50.233,120.329 50.517 C 120.038 50.801,119.215 51.273,118.500 51.565 C 117.785 51.858,117.200 52.219,117.200 52.368 C 117.200 52.517,116.570 52.867,115.800 53.146 C 115.030 53.424,114.400 53.784,114.400 53.946 C 114.400 54.107,113.770 54.467,113.000 54.746 C 112.230 55.024,111.600 55.420,111.600 55.626 C 111.600 55.832,111.343 56.000,111.029 56.000 C 110.714 56.000,110.219 56.233,109.929 56.517 C 109.638 56.801,108.815 57.273,108.100 57.565 C 107.385 57.858,106.800 58.219,106.800 58.368 C 106.800 58.517,106.170 58.867,105.400 59.146 C 104.630 59.424,104.000 59.784,104.000 59.946 C 104.000 60.107,103.370 60.467,102.600 60.746 C 101.830 61.024,101.200 61.420,101.200 61.626 C 101.200 61.832,100.943 62.000,100.629 62.000 C 100.314 62.000,99.819 62.233,99.529 62.517 C 99.238 62.801,98.415 63.273,97.700 63.565 C 96.985 63.858,96.400 64.219,96.400 64.368 C 96.400 64.517,95.770 64.867,95.000 65.146 C 94.230 65.424,93.600 65.820,93.600 66.026 C 93.600 66.232,93.343 66.400,93.029 66.400 C 92.714 66.400,92.219 66.633,91.929 66.917 C 91.638 67.201,90.815 67.673,90.100 67.965 C 89.385 68.258,88.800 68.619,88.800 68.768 C 88.800 68.917,88.170 69.267,87.400 69.546 C 86.630 69.824,86.000 70.184,86.000 70.346 C 86.000 70.507,85.370 70.867,84.600 71.146 C 83.830 71.424,83.200 71.820,83.200 72.026 C 83.200 72.232,82.943 72.400,82.629 72.400 C 82.314 72.400,81.819 72.633,81.529 72.917 C 81.238 73.201,80.415 73.673,79.700 73.965 C 78.985 74.258,78.400 74.619,78.400 74.768 C 78.400 74.917,77.770 75.267,77.000 75.546 C 76.230 75.824,75.600 76.184,75.600 76.346 C 75.600 76.507,74.970 76.867,74.200 77.146 C 73.430 77.424,72.800 77.820,72.800 78.026 C 72.800 78.232,72.543 78.400,72.229 78.400 C 71.914 78.400,71.419 78.633,71.129 78.917 C 70.838 79.201,70.015 79.673,69.300 79.965 C 68.585 80.258,68.000 80.619,68.000 80.768 C 68.000 80.917,67.370 81.267,66.600 81.546 C 65.830 81.824,65.200 82.184,65.200 82.346 C 65.200 82.507,64.570 82.867,63.800 83.146 C 63.030 83.424,62.400 83.820,62.400 84.026 C 62.400 84.232,62.143 84.400,61.829 84.400 C 61.514 84.400,61.019 84.633,60.729 84.917 C 60.438 85.201,59.615 85.673,58.900 85.965 C 58.185 86.258,57.600 86.619,57.600 86.768 C 57.600 86.917,56.970 87.267,56.200 87.546 C 55.430 87.824,54.800 88.220,54.800 88.426 C 54.800 88.632,54.543 88.800,54.229 88.800 C 53.914 88.800,53.419 89.033,53.129 89.317 C 52.838 89.601,52.015 90.073,51.300 90.365 C 50.585 90.658,50.000 91.019,50.000 91.168 C 50.000 91.317,49.370 91.667,48.600 91.946 C 47.830 92.224,47.200 92.584,47.200 92.746 C 47.200 92.907,46.570 93.267,45.800 93.546 C 45.030 93.824,44.400 94.220,44.400 94.426 C 44.400 94.632,44.143 94.800,43.829 94.800 C 43.514 94.800,43.019 95.033,42.729 95.317 C 42.438 95.601,41.615 96.073,40.900 96.365 C 40.185 96.658,39.600 97.019,39.600 97.168 C 39.600 97.317,38.970 97.667,38.200 97.946 C 37.430 98.224,36.800 98.584,36.800 98.746 C 36.800 98.907,36.170 99.267,35.400 99.546 C 34.630 99.824,34.000 100.220,34.000 100.426 C 34.000 100.632,33.756 100.800,33.458 100.800 C 33.161 100.800,32.441 101.241,31.860 101.779 L 30.803 102.759 30.803 200.000 L 30.803 297.241 31.860 298.221 C 32.441 298.759,33.161 299.200,33.458 299.200 C 33.756 299.200,34.000 299.368,34.000 299.574 C 34.000 299.780,34.630 300.176,35.400 300.454 C 36.170 300.733,36.800 301.093,36.800 301.254 C 36.800 301.416,37.430 301.776,38.200 302.054 C 38.970 302.333,39.600 302.683,39.600 302.832 C 39.600 302.981,40.185 303.342,40.900 303.635 C 41.615 303.927,42.438 304.399,42.729 304.683 C 43.019 304.967,43.514 305.200,43.829 305.200 C 44.143 305.200,44.400 305.368,44.400 305.574 C 44.400 305.780,45.030 306.176,45.800 306.454 C 46.570 306.733,47.200 307.093,47.200 307.254 C 47.200 307.416,47.830 307.776,48.600 308.054 C 49.370 308.333,50.000 308.683,50.000 308.832 C 50.000 308.981,50.585 309.342,51.300 309.635 C 52.015 309.927,52.838 310.399,53.129 310.683 C 53.419 310.967,53.914 311.200,54.229 311.200 C 54.543 311.200,54.800 311.368,54.800 311.574 C 54.800 311.780,55.430 312.176,56.200 312.454 C 56.970 312.733,57.600 313.083,57.600 313.232 C 57.600 313.381,58.185 313.742,58.900 314.035 C 59.615 314.327,60.438 314.799,60.729 315.083 C 61.019 315.367,61.514 315.600,61.829 315.600 C 62.143 315.600,62.400 315.768,62.400 315.974 C 62.400 316.180,63.030 316.576,63.800 316.854 C 64.570 317.133,65.200 317.493,65.200 317.654 C 65.200 317.816,65.830 318.176,66.600 318.454 C 67.370 318.733,68.000 319.083,68.000 319.232 C 68.000 319.381,68.585 319.742,69.300 320.035 C 70.015 320.327,70.838 320.799,71.129 321.083 C 71.419 321.367,71.914 321.600,72.229 321.600 C 72.543 321.600,72.800 321.768,72.800 321.974 C 72.800 322.180,73.430 322.576,74.200 322.854 C 74.970 323.133,75.600 323.493,75.600 323.654 C 75.600 323.816,76.230 324.176,77.000 324.454 C 77.770 324.733,78.400 325.083,78.400 325.232 C 78.400 325.381,78.985 325.742,79.700 326.035 C 80.415 326.327,81.238 326.799,81.529 327.083 C 81.819 327.367,82.314 327.600,82.629 327.600 C 82.943 327.600,83.200 327.768,83.200 327.974 C 83.200 328.180,83.830 328.576,84.600 328.854 C 85.370 329.133,86.000 329.493,86.000 329.654 C 86.000 329.816,86.630 330.176,87.400 330.454 C 88.170 330.733,88.800 331.083,88.800 331.232 C 88.800 331.381,89.385 331.742,90.100 332.035 C 90.815 332.327,91.638 332.799,91.929 333.083 C 92.219 333.367,92.714 333.600,93.029 333.600 C 93.343 333.600,93.600 333.768,93.600 333.974 C 93.600 334.180,94.230 334.576,95.000 334.854 C 95.770 335.133,96.400 335.483,96.400 335.632 C 96.400 335.781,96.985 336.142,97.700 336.435 C 98.415 336.727,99.238 337.199,99.529 337.483 C 99.819 337.767,100.314 338.000,100.629 338.000 C 100.943 338.000,101.200 338.168,101.200 338.374 C 101.200 338.580,101.830 338.976,102.600 339.254 C 103.370 339.533,104.000 339.893,104.000 340.054 C 104.000 340.216,104.630 340.576,105.400 340.854 C 106.170 341.133,106.800 341.483,106.800 341.632 C 106.800 341.781,107.385 342.142,108.100 342.435 C 108.815 342.727,109.638 343.199,109.929 343.483 C 110.219 343.767,110.714 344.000,111.029 344.000 C 111.343 344.000,111.600 344.168,111.600 344.374 C 111.600 344.580,112.230 344.976,113.000 345.254 C 113.770 345.533,114.400 345.893,114.400 346.054 C 114.400 346.216,115.030 346.576,115.800 346.854 C 116.570 347.133,117.200 347.483,117.200 347.632 C 117.200 347.781,117.785 348.142,118.500 348.435 C 119.215 348.727,120.038 349.199,120.329 349.483 C 120.619 349.767,121.114 350.000,121.429 350.000 C 121.743 350.000,122.000 350.168,122.000 350.374 C 122.000 350.580,122.630 350.976,123.400 351.254 C 124.170 351.533,124.800 351.883,124.800 352.032 C 124.800 352.181,125.385 352.542,126.100 352.835 C 126.815 353.127,127.638 353.599,127.929 353.883 C 128.219 354.167,128.714 354.400,129.029 354.400 C 129.343 354.400,129.600 354.568,129.600 354.774 C 129.600 354.980,130.230 355.376,131.000 355.654 C 131.770 355.933,132.400 356.293,132.400 356.454 C 132.400 356.616,133.030 356.976,133.800 357.254 C 134.570 357.533,135.200 357.883,135.200 358.032 C 135.200 358.181,135.785 358.542,136.500 358.835 C 137.215 359.127,138.038 359.599,138.329 359.883 C 138.619 360.167,139.114 360.400,139.429 360.400 C 139.743 360.400,140.000 360.568,140.000 360.774 C 140.000 360.980,140.630 361.376,141.400 361.654 C 142.170 361.933,142.800 362.293,142.800 362.454 C 142.800 362.616,143.430 362.976,144.200 363.254 C 144.970 363.533,145.600 363.883,145.600 364.032 C 145.600 364.181,146.185 364.542,146.900 364.835 C 147.615 365.127,148.438 365.599,148.729 365.883 C 149.019 366.167,149.514 366.400,149.829 366.400 C 150.143 366.400,150.400 366.568,150.400 366.774 C 150.400 366.980,151.030 367.376,151.800 367.654 C 152.570 367.933,153.200 368.293,153.200 368.454 C 153.200 368.616,153.830 368.976,154.600 369.254 C 155.370 369.533,156.000 369.883,156.000 370.032 C 156.000 370.181,156.585 370.542,157.300 370.835 C 158.015 371.127,158.838 371.599,159.129 371.883 C 159.419 372.167,159.914 372.400,160.229 372.400 C 160.543 372.400,160.800 372.568,160.800 372.774 C 160.800 372.980,161.430 373.376,162.200 373.654 C 162.970 373.933,163.600 374.283,163.600 374.432 C 163.600 374.581,164.185 374.942,164.900 375.235 C 165.615 375.527,166.438 375.999,166.729 376.283 C 167.019 376.567,167.514 376.800,167.829 376.800 C 168.143 376.800,168.400 376.968,168.400 377.174 C 168.400 377.380,169.030 377.776,169.800 378.054 C 170.570 378.333,171.200 378.693,171.200 378.854 C 171.200 379.016,171.830 379.376,172.600 379.654 C 173.370 379.933,174.000 380.283,174.000 380.432 C 174.000 380.581,174.585 380.942,175.300 381.235 C 176.015 381.527,176.838 381.999,177.129 382.283 C 177.419 382.567,177.914 382.800,178.229 382.800 C 178.543 382.800,178.800 382.968,178.800 383.174 C 178.800 383.380,179.430 383.776,180.200 384.054 C 180.970 384.333,181.600 384.693,181.600 384.854 C 181.600 385.016,182.230 385.376,183.000 385.654 C 183.770 385.933,184.400 386.283,184.400 386.432 C 184.400 386.581,184.985 386.942,185.700 387.235 C 186.415 387.527,187.238 387.999,187.529 388.283 C 187.819 388.567,188.314 388.800,188.629 388.800 C 188.943 388.800,189.200 388.968,189.200 389.174 C 189.200 389.380,189.830 389.776,190.600 390.054 C 191.370 390.333,192.000 390.693,192.000 390.854 C 192.000 391.016,192.630 391.376,193.400 391.654 C 194.170 391.933,194.800 392.283,194.800 392.432 C 194.800 392.581,195.385 392.942,196.100 393.235 C 196.815 393.527,197.638 393.999,197.929 394.283 C 198.219 394.567,199.151 394.800,200.000 394.800 C 200.849 394.800,201.781 394.567,202.071 394.283 C 202.362 393.999,203.185 393.527,203.900 393.235 C 204.615 392.942,205.200 392.581,205.200 392.432 C 205.200 392.283,205.830 391.933,206.600 391.654 C 207.370 391.376,208.000 391.016,208.000 390.854 C 208.000 390.693,208.630 390.333,209.400 390.054 C 210.170 389.776,210.800 389.380,210.800 389.174 C 210.800 388.968,211.057 388.800,211.371 388.800 C 211.686 388.800,212.181 388.567,212.471 388.283 C 212.762 387.999,213.585 387.527,214.300 387.235 C 215.015 386.942,215.600 386.581,215.600 386.432 C 215.600 386.283,216.230 385.933,217.000 385.654 C 217.770 385.376,218.400 385.016,218.400 384.854 C 218.400 384.693,219.030 384.333,219.800 384.054 C 220.570 383.776,221.200 383.380,221.200 383.174 C 221.200 382.968,221.457 382.800,221.771 382.800 C 222.086 382.800,222.581 382.567,222.871 382.283 C 223.162 381.999,223.985 381.527,224.700 381.235 C 225.415 380.942,226.000 380.581,226.000 380.432 C 226.000 380.283,226.630 379.933,227.400 379.654 C 228.170 379.376,228.800 379.016,228.800 378.854 C 228.800 378.693,229.430 378.333,230.200 378.054 C 230.970 377.776,231.600 377.380,231.600 377.174 C 231.600 376.968,231.857 376.800,232.171 376.800 C 232.486 376.800,232.981 376.567,233.271 376.283 C 233.562 375.999,234.385 375.527,235.100 375.235 C 235.815 374.942,236.400 374.581,236.400 374.432 C 236.400 374.283,237.030 373.933,237.800 373.654 C 238.570 373.376,239.200 372.980,239.200 372.774 C 239.200 372.568,239.457 372.400,239.771 372.400 C 240.086 372.400,240.581 372.167,240.871 371.883 C 241.162 371.599,241.985 371.127,242.700 370.835 C 243.415 370.542,244.000 370.181,244.000 370.032 C 244.000 369.883,244.630 369.533,245.400 369.254 C 246.170 368.976,246.800 368.616,246.800 368.454 C 246.800 368.293,247.430 367.933,248.200 367.654 C 248.970 367.376,249.600 366.980,249.600 366.774 C 249.600 366.568,249.857 366.400,250.171 366.400 C 250.486 366.400,250.981 366.167,251.271 365.883 C 251.562 365.599,252.385 365.127,253.100 364.835 C 253.815 364.542,254.400 364.181,254.400 364.032 C 254.400 363.883,255.030 363.533,255.800 363.254 C 256.570 362.976,257.200 362.616,257.200 362.454 C 257.200 362.293,257.830 361.933,258.600 361.654 C 259.370 361.376,260.000 360.980,260.000 360.774 C 260.000 360.568,260.257 360.400,260.571 360.400 C 260.886 360.400,261.381 360.167,261.671 359.883 C 261.962 359.599,262.785 359.127,263.500 358.835 C 264.215 358.542,264.800 358.181,264.800 358.032 C 264.800 357.883,265.430 357.533,266.200 357.254 C 266.970 356.976,267.600 356.580,267.600 356.374 C 267.600 356.168,267.857 356.000,268.171 356.000 C 268.486 356.000,268.981 355.767,269.271 355.483 C 269.562 355.199,270.385 354.727,271.100 354.435 C 271.815 354.142,272.400 353.781,272.400 353.632 C 272.400 353.483,273.030 353.133,273.800 352.854 C 274.570 352.576,275.200 352.216,275.200 352.054 C 275.200 351.893,275.830 351.533,276.600 351.254 C 277.370 350.976,278.000 350.580,278.000 350.374 C 278.000 350.168,278.257 350.000,278.571 350.000 C 278.886 350.000,279.381 349.767,279.671 349.483 C 279.962 349.199,280.785 348.727,281.500 348.435 C 282.215 348.142,282.800 347.781,282.800 347.632 C 282.800 347.483,283.430 347.133,284.200 346.854 C 284.970 346.576,285.600 346.216,285.600 346.054 C 285.600 345.893,286.230 345.533,287.000 345.254 C 287.770 344.976,288.400 344.580,288.400 344.374 C 288.400 344.168,288.657 344.000,288.971 344.000 C 289.286 344.000,289.781 343.767,290.071 343.483 C 290.362 343.199,291.185 342.727,291.900 342.435 C 292.615 342.142,293.200 341.781,293.200 341.632 C 293.200 341.483,293.830 341.133,294.600 340.854 C 295.370 340.576,296.000 340.216,296.000 340.054 C 296.000 339.893,296.630 339.533,297.400 339.254 C 298.170 338.976,298.800 338.580,298.800 338.374 C 298.800 338.168,299.057 338.000,299.371 338.000 C 299.686 338.000,300.181 337.767,300.471 337.483 C 300.762 337.199,301.585 336.727,302.300 336.435 C 303.015 336.142,303.600 335.781,303.600 335.632 C 303.600 335.483,304.230 335.133,305.000 334.854 C 305.770 334.576,306.400 334.180,306.400 333.974 C 306.400 333.768,306.657 333.600,306.971 333.600 C 307.286 333.600,307.781 333.367,308.071 333.083 C 308.362 332.799,309.185 332.327,309.900 332.035 C 310.615 331.742,311.200 331.381,311.200 331.232 C 311.200 331.083,311.830 330.733,312.600 330.454 C 313.370 330.176,314.000 329.816,314.000 329.654 C 314.000 329.493,314.630 329.133,315.400 328.854 C 316.170 328.576,316.800 328.180,316.800 327.974 C 316.800 327.768,317.057 327.600,317.371 327.600 C 317.686 327.600,318.181 327.367,318.471 327.083 C 318.762 326.799,319.585 326.327,320.300 326.035 C 321.015 325.742,321.600 325.381,321.600 325.232 C 321.600 325.083,322.230 324.733,323.000 324.454 C 323.770 324.176,324.400 323.816,324.400 323.654 C 324.400 323.493,325.030 323.133,325.800 322.854 C 326.570 322.576,327.200 322.180,327.200 321.974 C 327.200 321.768,327.457 321.600,327.771 321.600 C 328.086 321.600,328.581 321.367,328.871 321.083 C 329.162 320.799,329.985 320.327,330.700 320.035 C 331.415 319.742,332.000 319.381,332.000 319.232 C 332.000 319.083,332.630 318.733,333.400 318.454 C 334.170 318.176,334.800 317.816,334.800 317.654 C 334.800 317.493,335.430 317.133,336.200 316.854 C 336.970 316.576,337.600 316.180,337.600 315.974 C 337.600 315.768,337.857 315.600,338.171 315.600 C 338.486 315.600,338.981 315.367,339.271 315.083 C 339.562 314.799,340.385 314.327,341.100 314.035 C 341.815 313.742,342.400 313.381,342.400 313.232 C 342.400 313.083,343.030 312.733,343.800 312.454 C 344.570 312.176,345.200 311.780,345.200 311.574 C 345.200 311.368,345.457 311.200,345.771 311.200 C 346.086 311.200,346.581 310.967,346.871 310.683 C 347.162 310.399,347.985 309.927,348.700 309.635 C 349.415 309.342,350.000 308.981,350.000 308.832 C 350.000 308.683,350.630 308.333,351.400 308.054 C 352.170 307.776,352.800 307.416,352.800 307.254 C 352.800 307.093,353.430 306.733,354.200 306.454 C 354.970 306.176,355.600 305.780,355.600 305.574 C 355.600 305.368,355.857 305.200,356.171 305.200 C 356.486 305.200,356.981 304.967,357.271 304.683 C 357.562 304.399,358.385 303.927,359.100 303.635 C 359.815 303.342,360.400 302.981,360.400 302.832 C 360.400 302.683,361.030 302.333,361.800 302.054 C 362.570 301.776,363.200 301.416,363.200 301.254 C 363.200 301.093,363.830 300.733,364.600 300.454 C 365.370 300.176,366.000 299.780,366.000 299.574 C 366.000 299.368,366.244 299.200,366.542 299.200 C 366.839 299.200,367.559 298.759,368.140 298.221 L 369.197 297.241 369.197 200.000 L 369.197 102.759 368.140 101.779 C 367.559 101.241,366.839 100.800,366.542 100.800 C 366.244 100.800,366.000 100.632,366.000 100.426 C 366.000 100.220,365.370 99.824,364.600 99.546 C 363.830 99.267,363.200 98.907,363.200 98.746 C 363.200 98.584,362.570 98.224,361.800 97.946 C 361.030 97.667,360.400 97.317,360.400 97.168 C 360.400 97.019,359.815 96.658,359.100 96.365 C 358.385 96.073,357.562 95.601,357.271 95.317 C 356.981 95.033,356.486 94.800,356.171 94.800 C 355.857 94.800,355.600 94.632,355.600 94.426 C 355.600 94.220,354.970 93.824,354.200 93.546 C 353.430 93.267,352.800 92.907,352.800 92.746 C 352.800 92.584,352.170 92.224,351.400 91.946 C 350.630 91.667,350.000 91.317,350.000 91.168 C 350.000 91.019,349.415 90.658,348.700 90.365 C 347.985 90.073,347.162 89.601,346.871 89.317 C 346.581 89.033,346.086 88.800,345.771 88.800 C 345.457 88.800,345.200 88.632,345.200 88.426 C 345.200 88.220,344.570 87.824,343.800 87.546 C 343.030 87.267,342.400 86.917,342.400 86.768 C 342.400 86.619,341.815 86.258,341.100 85.965 C 340.385 85.673,339.562 85.201,339.271 84.917 C 338.981 84.633,338.486 84.400,338.171 84.400 C 337.857 84.400,337.600 84.232,337.600 84.026 C 337.600 83.820,336.970 83.424,336.200 83.146 C 335.430 82.867,334.800 82.507,334.800 82.346 C 334.800 82.184,334.170 81.824,333.400 81.546 C 332.630 81.267,332.000 80.917,332.000 80.768 C 332.000 80.619,331.415 80.258,330.700 79.965 C 329.985 79.673,329.162 79.201,328.871 78.917 C 328.581 78.633,328.086 78.400,327.771 78.400 C 327.457 78.400,327.200 78.232,327.200 78.026 C 327.200 77.820,326.570 77.424,325.800 77.146 C 325.030 76.867,324.400 76.507,324.400 76.346 C 324.400 76.184,323.770 75.824,323.000 75.546 C 322.230 75.267,321.600 74.917,321.600 74.768 C 321.600 74.619,321.015 74.258,320.300 73.965 C 319.585 73.673,318.762 73.201,318.471 72.917 C 318.181 72.633,317.686 72.400,317.371 72.400 C 317.057 72.400,316.800 72.232,316.800 72.026 C 316.800 71.820,316.170 71.424,315.400 71.146 C 314.630 70.867,314.000 70.507,314.000 70.346 C 314.000 70.184,313.370 69.824,312.600 69.546 C 311.830 69.267,311.200 68.917,311.200 68.768 C 311.200 68.619,310.615 68.258,309.900 67.965 C 309.185 67.673,308.362 67.201,308.071 66.917 C 307.781 66.633,307.286 66.400,306.971 66.400 C 306.657 66.400,306.400 66.232,306.400 66.026 C 306.400 65.820,305.770 65.424,305.000 65.146 C 304.230 64.867,303.600 64.517,303.600 64.368 C 303.600 64.219,303.015 63.858,302.300 63.565 C 301.585 63.273,300.762 62.801,300.471 62.517 C 300.181 62.233,299.686 62.000,299.371 62.000 C 299.057 62.000,298.800 61.832,298.800 61.626 C 298.800 61.420,298.170 61.024,297.400 60.746 C 296.630 60.467,296.000 60.107,296.000 59.946 C 296.000 59.784,295.370 59.424,294.600 59.146 C 293.830 58.867,293.200 58.517,293.200 58.368 C 293.200 58.219,292.615 57.858,291.900 57.565 C 291.185 57.273,290.362 56.801,290.071 56.517 C 289.781 56.233,289.286 56.000,288.971 56.000 C 288.657 56.000,288.400 55.832,288.400 55.626 C 288.400 55.420,287.770 55.024,287.000 54.746 C 286.230 54.467,285.600 54.107,285.600 53.946 C 285.600 53.784,284.970 53.424,284.200 53.146 C 283.430 52.867,282.800 52.517,282.800 52.368 C 282.800 52.219,282.215 51.858,281.500 51.565 C 280.785 51.273,279.962 50.801,279.671 50.517 C 279.381 50.233,278.886 50.000,278.571 50.000 C 278.257 50.000,278.000 49.832,278.000 49.626 C 278.000 49.420,277.370 49.024,276.600 48.746 C 275.830 48.467,275.200 48.107,275.200 47.946 C 275.200 47.784,274.570 47.424,273.800 47.146 C 273.030 46.867,272.400 46.517,272.400 46.368 C 272.400 46.219,271.815 45.858,271.100 45.565 C 270.385 45.273,269.562 44.801,269.271 44.517 C 268.981 44.233,268.486 44.000,268.171 44.000 C 267.857 44.000,267.600 43.832,267.600 43.626 C 267.600 43.420,266.970 43.024,266.200 42.746 C 265.430 42.467,264.800 42.117,264.800 41.968 C 264.800 41.819,264.215 41.458,263.500 41.165 C 262.785 40.873,261.962 40.401,261.671 40.117 C 261.381 39.833,260.886 39.600,260.571 39.600 C 260.257 39.600,260.000 39.432,260.000 39.226 C 260.000 39.020,259.370 38.624,258.600 38.346 C 257.830 38.067,257.200 37.707,257.200 37.546 C 257.200 37.384,256.570 37.024,255.800 36.746 C 255.030 36.467,254.400 36.117,254.400 35.968 C 254.400 35.819,253.815 35.458,253.100 35.165 C 252.385 34.873,251.562 34.401,251.271 34.117 C 250.981 33.833,250.486 33.600,250.171 33.600 C 249.857 33.600,249.600 33.432,249.600 33.226 C 249.600 33.020,248.970 32.624,248.200 32.346 C 247.430 32.067,246.800 31.707,246.800 31.546 C 246.800 31.384,246.170 31.024,245.400 30.746 C 244.630 30.467,244.000 30.117,244.000 29.968 C 244.000 29.819,243.415 29.458,242.700 29.165 C 241.985 28.873,241.162 28.401,240.871 28.117 C 240.581 27.833,240.086 27.600,239.771 27.600 C 239.457 27.600,239.200 27.432,239.200 27.226 C 239.200 27.020,238.570 26.624,237.800 26.346 C 237.030 26.067,236.400 25.717,236.400 25.568 C 236.400 25.419,235.815 25.058,235.100 24.765 C 234.385 24.473,233.562 24.001,233.271 23.717 C 232.981 23.433,232.486 23.200,232.171 23.200 C 231.857 23.200,231.600 23.032,231.600 22.826 C 231.600 22.620,230.970 22.224,230.200 21.946 C 229.430 21.667,228.800 21.307,228.800 21.146 C 228.800 20.984,228.170 20.624,227.400 20.346 C 226.630 20.067,226.000 19.717,226.000 19.568 C 226.000 19.419,225.415 19.058,224.700 18.765 C 223.985 18.473,223.162 18.001,222.871 17.717 C 222.581 17.433,222.086 17.200,221.771 17.200 C 221.457 17.200,221.200 17.032,221.200 16.826 C 221.200 16.620,220.570 16.224,219.800 15.946 C 219.030 15.667,218.400 15.307,218.400 15.146 C 218.400 14.984,217.770 14.624,217.000 14.346 C 216.230 14.067,215.600 13.717,215.600 13.568 C 215.600 13.419,215.015 13.058,214.300 12.765 C 213.585 12.473,212.762 12.001,212.471 11.717 C 212.181 11.433,211.686 11.200,211.371 11.200 C 211.057 11.200,210.800 11.032,210.800 10.826 C 210.800 10.620,210.170 10.224,209.400 9.946 C 208.630 9.667,208.000 9.307,208.000 9.146 C 208.000 8.984,207.370 8.624,206.600 8.346 C 205.830 8.067,205.200 7.717,205.200 7.568 C 205.200 7.419,204.615 7.058,203.900 6.765 C 203.185 6.473,202.362 6.001,202.071 5.717 C 201.388 5.048,198.612 5.048,197.929 5.717 M201.081 18.095 C 201.697 18.368,202.438 18.818,202.729 19.095 C 203.019 19.373,203.514 19.600,203.829 19.600 C 204.143 19.600,204.400 19.768,204.400 19.974 C 204.400 20.180,205.030 20.576,205.800 20.854 C 206.570 21.133,207.200 21.493,207.200 21.654 C 207.200 21.816,207.830 22.176,208.600 22.454 C 209.370 22.733,210.000 23.083,210.000 23.232 C 210.000 23.381,210.585 23.742,211.300 24.035 C 212.015 24.327,212.838 24.799,213.129 25.083 C 213.419 25.367,213.914 25.600,214.229 25.600 C 214.543 25.600,214.800 25.768,214.800 25.974 C 214.800 26.180,215.430 26.576,216.200 26.854 C 216.970 27.133,217.600 27.493,217.600 27.654 C 217.600 27.816,218.230 28.176,219.000 28.454 C 219.770 28.733,220.400 29.083,220.400 29.232 C 220.400 29.381,220.985 29.742,221.700 30.035 C 222.415 30.327,223.238 30.799,223.529 31.083 C 223.819 31.367,224.314 31.600,224.629 31.600 C 224.943 31.600,225.200 31.768,225.200 31.974 C 225.200 32.180,225.830 32.576,226.600 32.854 C 227.370 33.133,228.000 33.493,228.000 33.654 C 228.000 33.816,228.630 34.176,229.400 34.454 C 230.170 34.733,230.800 35.083,230.800 35.232 C 230.800 35.381,231.385 35.742,232.100 36.035 C 232.815 36.327,233.638 36.799,233.929 37.083 C 234.219 37.367,234.714 37.600,235.029 37.600 C 235.343 37.600,235.600 37.768,235.600 37.974 C 235.600 38.180,236.230 38.576,237.000 38.854 C 237.770 39.133,238.400 39.483,238.400 39.632 C 238.400 39.781,238.985 40.142,239.700 40.435 C 240.415 40.727,241.238 41.199,241.529 41.483 C 241.819 41.767,242.314 42.000,242.629 42.000 C 242.943 42.000,243.200 42.168,243.200 42.374 C 243.200 42.580,243.830 42.976,244.600 43.254 C 245.370 43.533,246.000 43.893,246.000 44.054 C 246.000 44.216,246.630 44.576,247.400 44.854 C 248.170 45.133,248.800 45.483,248.800 45.632 C 248.800 45.781,249.385 46.142,250.100 46.435 C 250.815 46.727,251.638 47.199,251.929 47.483 C 252.219 47.767,252.714 48.000,253.029 48.000 C 253.343 48.000,253.600 48.168,253.600 48.374 C 253.600 48.580,254.230 48.976,255.000 49.254 C 255.770 49.533,256.400 49.893,256.400 50.054 C 256.400 50.216,257.030 50.576,257.800 50.854 C 258.570 51.133,259.200 51.483,259.200 51.632 C 259.200 51.781,259.785 52.142,260.500 52.435 C 261.215 52.727,262.038 53.199,262.329 53.483 C 262.619 53.767,263.114 54.000,263.429 54.000 C 263.743 54.000,264.000 54.168,264.000 54.374 C 264.000 54.580,264.630 54.976,265.400 55.254 C 266.170 55.533,266.800 55.883,266.800 56.032 C 266.800 56.181,267.385 56.542,268.100 56.835 C 268.815 57.127,269.638 57.599,269.929 57.883 C 270.219 58.167,270.714 58.400,271.029 58.400 C 271.343 58.400,271.600 58.568,271.600 58.774 C 271.600 58.980,272.230 59.376,273.000 59.654 C 273.770 59.933,274.400 60.293,274.400 60.454 C 274.400 60.616,275.030 60.976,275.800 61.254 C 276.570 61.533,277.200 61.883,277.200 62.032 C 277.200 62.181,277.785 62.542,278.500 62.835 C 279.215 63.127,280.038 63.599,280.329 63.883 C 280.619 64.167,281.114 64.400,281.429 64.400 C 281.743 64.400,282.000 64.568,282.000 64.774 C 282.000 64.980,282.630 65.376,283.400 65.654 C 284.170 65.933,284.800 66.293,284.800 66.454 C 284.800 66.616,285.430 66.976,286.200 67.254 C 286.970 67.533,287.600 67.883,287.600 68.032 C 287.600 68.181,288.185 68.542,288.900 68.835 C 289.615 69.127,290.438 69.599,290.729 69.883 C 291.019 70.167,291.514 70.400,291.829 70.400 C 292.143 70.400,292.400 70.568,292.400 70.774 C 292.400 70.980,293.030 71.376,293.800 71.654 C 294.570 71.933,295.200 72.293,295.200 72.454 C 295.200 72.616,295.830 72.976,296.600 73.254 C 297.370 73.533,298.000 73.883,298.000 74.032 C 298.000 74.181,298.585 74.542,299.300 74.835 C 300.015 75.127,300.838 75.599,301.129 75.883 C 301.419 76.167,301.914 76.400,302.229 76.400 C 302.543 76.400,302.800 76.568,302.800 76.774 C 302.800 76.980,303.430 77.376,304.200 77.654 C 304.970 77.933,305.600 78.283,305.600 78.432 C 305.600 78.581,306.185 78.942,306.900 79.235 C 307.615 79.527,308.438 79.999,308.729 80.283 C 309.019 80.567,309.514 80.800,309.829 80.800 C 310.143 80.800,310.400 80.968,310.400 81.174 C 310.400 81.380,311.030 81.776,311.800 82.054 C 312.570 82.333,313.200 82.693,313.200 82.854 C 313.200 83.016,313.830 83.376,314.600 83.654 C 315.370 83.933,316.000 84.283,316.000 84.432 C 316.000 84.581,316.585 84.942,317.300 85.235 C 318.015 85.527,318.838 85.999,319.129 86.283 C 319.419 86.567,319.914 86.800,320.229 86.800 C 320.543 86.800,320.800 86.968,320.800 87.174 C 320.800 87.380,321.430 87.776,322.200 88.054 C 322.970 88.333,323.600 88.693,323.600 88.854 C 323.600 89.016,324.230 89.376,325.000 89.654 C 325.770 89.933,326.400 90.283,326.400 90.432 C 326.400 90.581,326.985 90.942,327.700 91.235 C 328.415 91.527,329.238 91.999,329.529 92.283 C 329.819 92.567,330.314 92.800,330.629 92.800 C 330.943 92.800,331.200 92.968,331.200 93.174 C 331.200 93.380,331.830 93.776,332.600 94.054 C 333.370 94.333,334.000 94.693,334.000 94.854 C 334.000 95.016,334.630 95.376,335.400 95.654 C 336.170 95.933,336.800 96.283,336.800 96.432 C 336.800 96.581,337.385 96.942,338.100 97.235 C 338.815 97.527,339.638 97.999,339.929 98.283 C 340.219 98.567,340.714 98.800,341.029 98.800 C 341.343 98.800,341.600 98.968,341.600 99.174 C 341.600 99.380,342.230 99.776,343.000 100.054 C 343.770 100.333,344.400 100.683,344.400 100.832 C 344.400 100.981,344.985 101.342,345.700 101.635 C 346.415 101.927,347.238 102.399,347.529 102.683 C 347.819 102.967,348.314 103.200,348.629 103.200 C 348.943 103.200,349.200 103.368,349.200 103.574 C 349.200 103.780,349.830 104.176,350.600 104.454 C 351.370 104.733,352.000 105.093,352.000 105.254 C 352.000 105.416,352.630 105.776,353.400 106.054 C 354.170 106.333,354.800 106.683,354.800 106.832 C 354.800 106.981,355.385 107.342,356.100 107.635 C 356.815 107.927,357.625 108.386,357.900 108.655 C 358.297 109.042,358.400 127.841,358.400 200.000 C 358.400 272.159,358.297 290.958,357.900 291.345 C 357.625 291.614,356.815 292.073,356.100 292.365 C 355.385 292.658,354.800 293.019,354.800 293.168 C 354.800 293.317,354.170 293.667,353.400 293.946 C 352.630 294.224,352.000 294.584,352.000 294.746 C 352.000 294.907,351.370 295.267,350.600 295.546 C 349.830 295.824,349.200 296.220,349.200 296.426 C 349.200 296.632,348.943 296.800,348.629 296.800 C 348.314 296.800,347.819 297.033,347.529 297.317 C 347.238 297.601,346.415 298.073,345.700 298.365 C 344.985 298.658,344.400 299.019,344.400 299.168 C 344.400 299.317,343.770 299.667,343.000 299.946 C 342.230 300.224,341.600 300.620,341.600 300.826 C 341.600 301.032,341.343 301.200,341.029 301.200 C 340.714 301.200,340.219 301.433,339.929 301.717 C 339.638 302.001,338.815 302.473,338.100 302.765 C 337.385 303.058,336.800 303.419,336.800 303.568 C 336.800 303.717,336.170 304.067,335.400 304.346 C 334.630 304.624,334.000 304.984,334.000 305.146 C 334.000 305.307,333.370 305.667,332.600 305.946 C 331.830 306.224,331.200 306.620,331.200 306.826 C 331.200 307.032,330.943 307.200,330.629 307.200 C 330.314 307.200,329.819 307.433,329.529 307.717 C 329.238 308.001,328.415 308.473,327.700 308.765 C 326.985 309.058,326.400 309.419,326.400 309.568 C 326.400 309.717,325.770 310.067,325.000 310.346 C 324.230 310.624,323.600 310.984,323.600 311.146 C 323.600 311.307,322.970 311.667,322.200 311.946 C 321.430 312.224,320.800 312.620,320.800 312.826 C 320.800 313.032,320.543 313.200,320.229 313.200 C 319.914 313.200,319.419 313.433,319.129 313.717 C 318.838 314.001,318.015 314.473,317.300 314.765 C 316.585 315.058,316.000 315.419,316.000 315.568 C 316.000 315.717,315.370 316.067,314.600 316.346 C 313.830 316.624,313.200 316.984,313.200 317.146 C 313.200 317.307,312.570 317.667,311.800 317.946 C 311.030 318.224,310.400 318.620,310.400 318.826 C 310.400 319.032,310.143 319.200,309.829 319.200 C 309.514 319.200,309.019 319.433,308.729 319.717 C 308.438 320.001,307.615 320.473,306.900 320.765 C 306.185 321.058,305.600 321.419,305.600 321.568 C 305.600 321.717,304.970 322.067,304.200 322.346 C 303.430 322.624,302.800 323.020,302.800 323.226 C 302.800 323.432,302.543 323.600,302.229 323.600 C 301.914 323.600,301.419 323.833,301.129 324.117 C 300.838 324.401,300.015 324.873,299.300 325.165 C 298.585 325.458,298.000 325.819,298.000 325.968 C 298.000 326.117,297.370 326.467,296.600 326.746 C 295.830 327.024,295.200 327.384,295.200 327.546 C 295.200 327.707,294.570 328.067,293.800 328.346 C 293.030 328.624,292.400 329.020,292.400 329.226 C 292.400 329.432,292.143 329.600,291.829 329.600 C 291.514 329.600,291.019 329.833,290.729 330.117 C 290.438 330.401,289.615 330.873,288.900 331.165 C 288.185 331.458,287.600 331.819,287.600 331.968 C 287.600 332.117,286.970 332.467,286.200 332.746 C 285.430 333.024,284.800 333.384,284.800 333.546 C 284.800 333.707,284.170 334.067,283.400 334.346 C 282.630 334.624,282.000 335.020,282.000 335.226 C 282.000 335.432,281.743 335.600,281.429 335.600 C 281.114 335.600,280.619 335.833,280.329 336.117 C 280.038 336.401,279.215 336.873,278.500 337.165 C 277.785 337.458,277.200 337.819,277.200 337.968 C 277.200 338.117,276.570 338.467,275.800 338.746 C 275.030 339.024,274.400 339.384,274.400 339.546 C 274.400 339.707,273.770 340.067,273.000 340.346 C 272.230 340.624,271.600 341.020,271.600 341.226 C 271.600 341.432,271.343 341.600,271.029 341.600 C 270.714 341.600,270.219 341.833,269.929 342.117 C 269.638 342.401,268.815 342.873,268.100 343.165 C 267.385 343.458,266.800 343.819,266.800 343.968 C 266.800 344.117,266.170 344.467,265.400 344.746 C 264.630 345.024,264.000 345.420,264.000 345.626 C 264.000 345.832,263.743 346.000,263.429 346.000 C 263.114 346.000,262.619 346.233,262.329 346.517 C 262.038 346.801,261.215 347.273,260.500 347.565 C 259.785 347.858,259.200 348.219,259.200 348.368 C 259.200 348.517,258.570 348.867,257.800 349.146 C 257.030 349.424,256.400 349.784,256.400 349.946 C 256.400 350.107,255.770 350.467,255.000 350.746 C 254.230 351.024,253.600 351.420,253.600 351.626 C 253.600 351.832,253.343 352.000,253.029 352.000 C 252.714 352.000,252.219 352.233,251.929 352.517 C 251.638 352.801,250.815 353.273,250.100 353.565 C 249.385 353.858,248.800 354.219,248.800 354.368 C 248.800 354.517,248.170 354.867,247.400 355.146 C 246.630 355.424,246.000 355.784,246.000 355.946 C 246.000 356.107,245.370 356.467,244.600 356.746 C 243.830 357.024,243.200 357.420,243.200 357.626 C 243.200 357.832,242.943 358.000,242.629 358.000 C 242.314 358.000,241.819 358.233,241.529 358.517 C 241.238 358.801,240.415 359.273,239.700 359.565 C 238.985 359.858,238.400 360.219,238.400 360.368 C 238.400 360.517,237.770 360.867,237.000 361.146 C 236.230 361.424,235.600 361.820,235.600 362.026 C 235.600 362.232,235.343 362.400,235.029 362.400 C 234.714 362.400,234.219 362.633,233.929 362.917 C 233.638 363.201,232.815 363.673,232.100 363.965 C 231.385 364.258,230.800 364.619,230.800 364.768 C 230.800 364.917,230.170 365.267,229.400 365.546 C 228.630 365.824,228.000 366.184,228.000 366.346 C 228.000 366.507,227.370 366.867,226.600 367.146 C 225.830 367.424,225.200 367.820,225.200 368.026 C 225.200 368.232,224.943 368.400,224.629 368.400 C 224.314 368.400,223.819 368.633,223.529 368.917 C 223.238 369.201,222.415 369.673,221.700 369.965 C 220.985 370.258,220.400 370.619,220.400 370.768 C 220.400 370.917,219.770 371.267,219.000 371.546 C 218.230 371.824,217.600 372.184,217.600 372.346 C 217.600 372.507,216.970 372.867,216.200 373.146 C 215.430 373.424,214.800 373.820,214.800 374.026 C 214.800 374.232,214.543 374.400,214.229 374.400 C 213.914 374.400,213.419 374.633,213.129 374.917 C 212.838 375.201,212.015 375.673,211.300 375.965 C 210.585 376.258,210.000 376.619,210.000 376.768 C 210.000 376.917,209.370 377.267,208.600 377.546 C 207.830 377.824,207.200 378.184,207.200 378.346 C 207.200 378.507,206.570 378.867,205.800 379.146 C 205.030 379.424,204.400 379.820,204.400 380.026 C 204.400 380.232,204.143 380.400,203.829 380.400 C 203.514 380.400,203.019 380.627,202.729 380.905 C 201.082 382.477,198.918 382.477,197.271 380.905 C 196.981 380.627,196.486 380.400,196.171 380.400 C 195.857 380.400,195.600 380.232,195.600 380.026 C 195.600 379.820,194.970 379.424,194.200 379.146 C 193.430 378.867,192.800 378.507,192.800 378.346 C 192.800 378.184,192.170 377.824,191.400 377.546 C 190.630 377.267,190.000 376.917,190.000 376.768 C 190.000 376.619,189.415 376.258,188.700 375.965 C 187.985 375.673,187.162 375.201,186.871 374.917 C 186.581 374.633,186.086 374.400,185.771 374.400 C 185.457 374.400,185.200 374.232,185.200 374.026 C 185.200 373.820,184.570 373.424,183.800 373.146 C 183.030 372.867,182.400 372.507,182.400 372.346 C 182.400 372.184,181.770 371.824,181.000 371.546 C 180.230 371.267,179.600 370.917,179.600 370.768 C 179.600 370.619,179.015 370.258,178.300 369.965 C 177.585 369.673,176.762 369.201,176.471 368.917 C 176.181 368.633,175.686 368.400,175.371 368.400 C 175.057 368.400,174.800 368.232,174.800 368.026 C 174.800 367.820,174.170 367.424,173.400 367.146 C 172.630 366.867,172.000 366.507,172.000 366.346 C 172.000 366.184,171.370 365.824,170.600 365.546 C 169.830 365.267,169.200 364.917,169.200 364.768 C 169.200 364.619,168.615 364.258,167.900 363.965 C 167.185 363.673,166.362 363.201,166.071 362.917 C 165.781 362.633,165.286 362.400,164.971 362.400 C 164.657 362.400,164.400 362.232,164.400 362.026 C 164.400 361.820,163.770 361.424,163.000 361.146 C 162.230 360.867,161.600 360.517,161.600 360.368 C 161.600 360.219,161.015 359.858,160.300 359.565 C 159.585 359.273,158.762 358.801,158.471 358.517 C 158.181 358.233,157.686 358.000,157.371 358.000 C 157.057 358.000,156.800 357.832,156.800 357.626 C 156.800 357.420,156.170 357.024,155.400 356.746 C 154.630 356.467,154.000 356.107,154.000 355.946 C 154.000 355.784,153.370 355.424,152.600 355.146 C 151.830 354.867,151.200 354.517,151.200 354.368 C 151.200 354.219,150.615 353.858,149.900 353.565 C 149.185 353.273,148.362 352.801,148.071 352.517 C 147.781 352.233,147.286 352.000,146.971 352.000 C 146.657 352.000,146.400 351.832,146.400 351.626 C 146.400 351.420,145.770 351.024,145.000 350.746 C 144.230 350.467,143.600 350.107,143.600 349.946 C 143.600 349.784,142.970 349.424,142.200 349.146 C 141.430 348.867,140.800 348.517,140.800 348.368 C 140.800 348.219,140.215 347.858,139.500 347.565 C 138.785 347.273,137.962 346.801,137.671 346.517 C 137.381 346.233,136.886 346.000,136.571 346.000 C 136.257 346.000,136.000 345.832,136.000 345.626 C 136.000 345.420,135.370 345.024,134.600 344.746 C 133.830 344.467,133.200 344.117,133.200 343.968 C 133.200 343.819,132.615 343.458,131.900 343.165 C 131.185 342.873,130.362 342.401,130.071 342.117 C 129.781 341.833,129.286 341.600,128.971 341.600 C 128.657 341.600,128.400 341.432,128.400 341.226 C 128.400 341.020,127.770 340.624,127.000 340.346 C 126.230 340.067,125.600 339.707,125.600 339.546 C 125.600 339.384,124.970 339.024,124.200 338.746 C 123.430 338.467,122.800 338.117,122.800 337.968 C 122.800 337.819,122.215 337.458,121.500 337.165 C 120.785 336.873,119.962 336.401,119.671 336.117 C 119.381 335.833,118.886 335.600,118.571 335.600 C 118.257 335.600,118.000 335.432,118.000 335.226 C 118.000 335.020,117.370 334.624,116.600 334.346 C 115.830 334.067,115.200 333.707,115.200 333.546 C 115.200 333.384,114.570 333.024,113.800 332.746 C 113.030 332.467,112.400 332.117,112.400 331.968 C 112.400 331.819,111.815 331.458,111.100 331.165 C 110.385 330.873,109.562 330.401,109.271 330.117 C 108.981 329.833,108.486 329.600,108.171 329.600 C 107.857 329.600,107.600 329.432,107.600 329.226 C 107.600 329.020,106.970 328.624,106.200 328.346 C 105.430 328.067,104.800 327.707,104.800 327.546 C 104.800 327.384,104.170 327.024,103.400 326.746 C 102.630 326.467,102.000 326.117,102.000 325.968 C 102.000 325.819,101.415 325.458,100.700 325.165 C 99.985 324.873,99.162 324.401,98.871 324.117 C 98.581 323.833,98.086 323.600,97.771 323.600 C 97.457 323.600,97.200 323.432,97.200 323.226 C 97.200 323.020,96.570 322.624,95.800 322.346 C 95.030 322.067,94.400 321.717,94.400 321.568 C 94.400 321.419,93.815 321.058,93.100 320.765 C 92.385 320.473,91.562 320.001,91.271 319.717 C 90.981 319.433,90.486 319.200,90.171 319.200 C 89.857 319.200,89.600 319.032,89.600 318.826 C 89.600 318.620,88.970 318.224,88.200 317.946 C 87.430 317.667,86.800 317.307,86.800 317.146 C 86.800 316.984,86.170 316.624,85.400 316.346 C 84.630 316.067,84.000 315.717,84.000 315.568 C 84.000 315.419,83.415 315.058,82.700 314.765 C 81.985 314.473,81.162 314.001,80.871 313.717 C 80.581 313.433,80.086 313.200,79.771 313.200 C 79.457 313.200,79.200 313.032,79.200 312.826 C 79.200 312.620,78.570 312.224,77.800 311.946 C 77.030 311.667,76.400 311.307,76.400 311.146 C 76.400 310.984,75.770 310.624,75.000 310.346 C 74.230 310.067,73.600 309.717,73.600 309.568 C 73.600 309.419,73.015 309.058,72.300 308.765 C 71.585 308.473,70.762 308.001,70.471 307.717 C 70.181 307.433,69.686 307.200,69.371 307.200 C 69.057 307.200,68.800 307.032,68.800 306.826 C 68.800 306.620,68.170 306.224,67.400 305.946 C 66.630 305.667,66.000 305.307,66.000 305.146 C 66.000 304.984,65.370 304.624,64.600 304.346 C 63.830 304.067,63.200 303.717,63.200 303.568 C 63.200 303.419,62.615 303.058,61.900 302.765 C 61.185 302.473,60.362 302.001,60.071 301.717 C 59.781 301.433,59.286 301.200,58.971 301.200 C 58.657 301.200,58.400 301.032,58.400 300.826 C 58.400 300.620,57.770 300.224,57.000 299.946 C 56.230 299.667,55.600 299.317,55.600 299.168 C 55.600 299.019,55.015 298.658,54.300 298.365 C 53.585 298.073,52.762 297.601,52.471 297.317 C 52.181 297.033,51.686 296.800,51.371 296.800 C 51.057 296.800,50.800 296.632,50.800 296.426 C 50.800 296.220,50.170 295.824,49.400 295.546 C 48.630 295.267,48.000 294.907,48.000 294.746 C 48.000 294.584,47.370 294.224,46.600 293.946 C 45.830 293.667,45.200 293.317,45.200 293.168 C 45.200 293.019,44.615 292.658,43.900 292.365 C 43.185 292.073,42.375 291.614,42.100 291.345 C 41.365 290.628,41.365 109.372,42.100 108.655 C 42.375 108.386,43.185 107.927,43.900 107.635 C 44.615 107.342,45.200 106.981,45.200 106.832 C 45.200 106.683,45.830 106.333,46.600 106.054 C 47.370 105.776,48.000 105.416,48.000 105.254 C 48.000 105.093,48.630 104.733,49.400 104.454 C 50.170 104.176,50.800 103.780,50.800 103.574 C 50.800 103.368,51.057 103.200,51.371 103.200 C 51.686 103.200,52.181 102.967,52.471 102.683 C 52.762 102.399,53.585 101.927,54.300 101.635 C 55.015 101.342,55.600 100.981,55.600 100.832 C 55.600 100.683,56.230 100.333,57.000 100.054 C 57.770 99.776,58.400 99.380,58.400 99.174 C 58.400 98.968,58.657 98.800,58.971 98.800 C 59.286 98.800,59.781 98.567,60.071 98.283 C 60.362 97.999,61.185 97.527,61.900 97.235 C 62.615 96.942,63.200 96.581,63.200 96.432 C 63.200 96.283,63.830 95.933,64.600 95.654 C 65.370 95.376,66.000 95.016,66.000 94.854 C 66.000 94.693,66.630 94.333,67.400 94.054 C 68.170 93.776,68.800 93.380,68.800 93.174 C 68.800 92.968,69.057 92.800,69.371 92.800 C 69.686 92.800,70.181 92.567,70.471 92.283 C 70.762 91.999,71.585 91.527,72.300 91.235 C 73.015 90.942,73.600 90.581,73.600 90.432 C 73.600 90.283,74.230 89.933,75.000 89.654 C 75.770 89.376,76.400 89.016,76.400 88.854 C 76.400 88.693,77.030 88.333,77.800 88.054 C 78.570 87.776,79.200 87.380,79.200 87.174 C 79.200 86.968,79.457 86.800,79.771 86.800 C 80.086 86.800,80.581 86.567,80.871 86.283 C 81.162 85.999,81.985 85.527,82.700 85.235 C 83.415 84.942,84.000 84.581,84.000 84.432 C 84.000 84.283,84.630 83.933,85.400 83.654 C 86.170 83.376,86.800 83.016,86.800 82.854 C 86.800 82.693,87.430 82.333,88.200 82.054 C 88.970 81.776,89.600 81.380,89.600 81.174 C 89.600 80.968,89.857 80.800,90.171 80.800 C 90.486 80.800,90.981 80.567,91.271 80.283 C 91.562 79.999,92.385 79.527,93.100 79.235 C 93.815 78.942,94.400 78.581,94.400 78.432 C 94.400 78.283,95.030 77.933,95.800 77.654 C 96.570 77.376,97.200 76.980,97.200 76.774 C 97.200 76.568,97.457 76.400,97.771 76.400 C 98.086 76.400,98.581 76.167,98.871 75.883 C 99.162 75.599,99.985 75.127,100.700 74.835 C 101.415 74.542,102.000 74.181,102.000 74.032 C 102.000 73.883,102.630 73.533,103.400 73.254 C 104.170 72.976,104.800 72.616,104.800 72.454 C 104.800 72.293,105.430 71.933,106.200 71.654 C 106.970 71.376,107.600 70.980,107.600 70.774 C 107.600 70.568,107.857 70.400,108.171 70.400 C 108.486 70.400,108.981 70.167,109.271 69.883 C 109.562 69.599,110.385 69.127,111.100 68.835 C 111.815 68.542,112.400 68.181,112.400 68.032 C 112.400 67.883,113.030 67.533,113.800 67.254 C 114.570 66.976,115.200 66.616,115.200 66.454 C 115.200 66.293,115.830 65.933,116.600 65.654 C 117.370 65.376,118.000 64.980,118.000 64.774 C 118.000 64.568,118.257 64.400,118.571 64.400 C 118.886 64.400,119.381 64.167,119.671 63.883 C 119.962 63.599,120.785 63.127,121.500 62.835 C 122.215 62.542,122.800 62.181,122.800 62.032 C 122.800 61.883,123.430 61.533,124.200 61.254 C 124.970 60.976,125.600 60.616,125.600 60.454 C 125.600 60.293,126.230 59.933,127.000 59.654 C 127.770 59.376,128.400 58.980,128.400 58.774 C 128.400 58.568,128.657 58.400,128.971 58.400 C 129.286 58.400,129.781 58.167,130.071 57.883 C 130.362 57.599,131.185 57.127,131.900 56.835 C 132.615 56.542,133.200 56.181,133.200 56.032 C 133.200 55.883,133.830 55.533,134.600 55.254 C 135.370 54.976,136.000 54.580,136.000 54.374 C 136.000 54.168,136.257 54.000,136.571 54.000 C 136.886 54.000,137.381 53.767,137.671 53.483 C 137.962 53.199,138.785 52.727,139.500 52.435 C 140.215 52.142,140.800 51.781,140.800 51.632 C 140.800 51.483,141.430 51.133,142.200 50.854 C 142.970 50.576,143.600 50.216,143.600 50.054 C 143.600 49.893,144.230 49.533,145.000 49.254 C 145.770 48.976,146.400 48.580,146.400 48.374 C 146.400 48.168,146.657 48.000,146.971 48.000 C 147.286 48.000,147.781 47.767,148.071 47.483 C 148.362 47.199,149.185 46.727,149.900 46.435 C 150.615 46.142,151.200 45.781,151.200 45.632 C 151.200 45.483,151.830 45.133,152.600 44.854 C 153.370 44.576,154.000 44.216,154.000 44.054 C 154.000 43.893,154.630 43.533,155.400 43.254 C 156.170 42.976,156.800 42.580,156.800 42.374 C 156.800 42.168,157.057 42.000,157.371 42.000 C 157.686 42.000,158.181 41.767,158.471 41.483 C 158.762 41.199,159.585 40.727,160.300 40.435 C 161.015 40.142,161.600 39.781,161.600 39.632 C 161.600 39.483,162.230 39.133,163.000 38.854 C 163.770 38.576,164.400 38.180,164.400 37.974 C 164.400 37.768,164.657 37.600,164.971 37.600 C 165.286 37.600,165.781 37.367,166.071 37.083 C 166.362 36.799,167.185 36.327,167.900 36.035 C 168.615 35.742,169.200 35.381,169.200 35.232 C 169.200 35.083,169.830 34.733,170.600 34.454 C 171.370 34.176,172.000 33.816,172.000 33.654 C 172.000 33.493,172.630 33.133,173.400 32.854 C 174.170 32.576,174.800 32.180,174.800 31.974 C 174.800 31.768,175.057 31.600,175.371 31.600 C 175.686 31.600,176.181 31.367,176.471 31.083 C 176.762 30.799,177.585 30.327,178.300 30.035 C 179.015 29.742,179.600 29.381,179.600 29.232 C 179.600 29.083,180.230 28.733,181.000 28.454 C 181.770 28.176,182.400 27.816,182.400 27.654 C 182.400 27.493,183.030 27.133,183.800 26.854 C 184.570 26.576,185.200 26.180,185.200 25.974 C 185.200 25.768,185.457 25.600,185.771 25.600 C 186.086 25.600,186.581 25.367,186.871 25.083 C 187.162 24.799,187.985 24.327,188.700 24.035 C 189.415 23.742,190.000 23.381,190.000 23.232 C 190.000 23.083,190.630 22.733,191.400 22.454 C 192.170 22.176,192.800 21.816,192.800 21.654 C 192.800 21.493,193.430 21.133,194.200 20.854 C 194.970 20.576,195.600 20.180,195.600 19.974 C 195.600 19.768,195.857 19.600,196.171 19.600 C 196.486 19.600,196.981 19.372,197.271 19.093 C 197.679 18.702,199.171 17.864,199.881 17.627 C 199.926 17.612,200.466 17.823,201.081 18.095 M198.400 29.200 C 198.400 29.420,198.143 29.600,197.829 29.600 C 197.514 29.600,197.019 29.833,196.729 30.117 C 196.438 30.401,195.615 30.873,194.900 31.165 C 194.185 31.458,193.600 31.819,193.600 31.968 C 193.600 32.117,192.970 32.467,192.200 32.746 C 191.430 33.024,190.800 33.384,190.800 33.546 C 190.800 33.707,190.170 34.067,189.400 34.346 C 188.630 34.624,188.000 35.020,188.000 35.226 C 188.000 35.432,187.743 35.600,187.429 35.600 C 187.114 35.600,186.619 35.833,186.329 36.117 C 186.038 36.401,185.215 36.873,184.500 37.165 C 183.785 37.458,183.200 37.819,183.200 37.968 C 183.200 38.117,182.570 38.467,181.800 38.746 C 181.030 39.024,180.400 39.420,180.400 39.626 C 180.400 39.832,180.143 40.000,179.829 40.000 C 179.514 40.000,179.019 40.233,178.729 40.517 C 178.438 40.801,177.615 41.273,176.900 41.565 C 176.185 41.858,175.600 42.219,175.600 42.368 C 175.600 42.517,174.970 42.867,174.200 43.146 C 173.430 43.424,172.800 43.784,172.800 43.946 C 172.800 44.107,172.170 44.467,171.400 44.746 C 170.630 45.024,170.000 45.420,170.000 45.626 C 170.000 45.832,169.743 46.000,169.429 46.000 C 169.114 46.000,168.619 46.233,168.329 46.517 C 168.038 46.801,167.215 47.273,166.500 47.565 C 165.785 47.858,165.200 48.219,165.200 48.368 C 165.200 48.517,164.570 48.867,163.800 49.146 C 163.030 49.424,162.400 49.784,162.400 49.946 C 162.400 50.107,161.770 50.467,161.000 50.746 C 160.230 51.024,159.600 51.420,159.600 51.626 C 159.600 51.832,159.343 52.000,159.029 52.000 C 158.714 52.000,158.219 52.233,157.929 52.517 C 157.638 52.801,156.815 53.273,156.100 53.565 C 155.385 53.858,154.800 54.219,154.800 54.368 C 154.800 54.517,154.170 54.867,153.400 55.146 C 152.630 55.424,152.000 55.784,152.000 55.946 C 152.000 56.107,151.370 56.467,150.600 56.746 C 149.830 57.024,149.200 57.420,149.200 57.626 C 149.200 57.832,148.943 58.000,148.629 58.000 C 148.314 58.000,147.819 58.233,147.529 58.517 C 147.238 58.801,146.415 59.273,145.700 59.565 C 144.985 59.858,144.400 60.255,144.400 60.449 C 144.400 60.642,144.158 60.800,143.861 60.800 C 143.565 60.800,142.935 61.136,142.462 61.546 L 141.602 62.292 141.602 200.000 L 141.602 337.708 142.462 338.454 C 142.935 338.864,143.565 339.200,143.861 339.200 C 144.158 339.200,144.400 339.358,144.400 339.551 C 144.400 339.745,144.985 340.142,145.700 340.435 C 146.415 340.727,147.238 341.199,147.529 341.483 C 147.819 341.767,148.314 342.000,148.629 342.000 C 148.943 342.000,149.200 342.168,149.200 342.374 C 149.200 342.580,149.830 342.976,150.600 343.254 C 151.370 343.533,152.000 343.893,152.000 344.054 C 152.000 344.216,152.630 344.576,153.400 344.854 C 154.170 345.133,154.800 345.483,154.800 345.632 C 154.800 345.781,155.385 346.142,156.100 346.435 C 156.815 346.727,157.638 347.199,157.929 347.483 C 158.219 347.767,158.714 348.000,159.029 348.000 C 159.343 348.000,159.600 348.168,159.600 348.374 C 159.600 348.580,160.230 348.976,161.000 349.254 C 161.770 349.533,162.400 349.883,162.400 350.032 C 162.400 350.181,162.985 350.542,163.700 350.835 C 164.415 351.127,165.248 351.609,165.550 351.905 C 166.398 352.734,168.587 352.378,168.657 351.400 C 168.689 350.960,168.734 289.287,168.757 214.349 L 168.800 78.097 170.000 77.600 C 170.660 77.327,171.200 76.981,171.200 76.832 C 171.200 76.683,171.830 76.333,172.600 76.054 C 173.370 75.776,174.000 75.416,174.000 75.254 C 174.000 75.093,174.630 74.733,175.400 74.454 C 176.170 74.176,176.800 73.780,176.800 73.574 C 176.800 73.368,177.057 73.200,177.371 73.200 C 177.686 73.200,178.181 72.967,178.471 72.683 C 178.762 72.399,179.585 71.927,180.300 71.635 C 181.015 71.342,181.600 70.964,181.600 70.795 C 181.600 70.625,182.037 70.377,182.572 70.243 C 183.107 70.109,183.790 69.753,184.091 69.452 C 184.391 69.152,185.034 68.780,185.519 68.626 L 186.400 68.346 186.446 215.473 C 186.471 296.393,186.458 362.928,186.416 363.330 C 186.370 363.771,186.668 364.145,187.170 364.276 C 187.626 364.396,188.000 364.641,188.000 364.821 C 188.000 365.001,188.630 365.376,189.400 365.654 C 190.170 365.933,190.800 366.293,190.800 366.454 C 190.800 366.616,191.430 366.976,192.200 367.254 C 192.970 367.533,193.600 367.883,193.600 368.032 C 193.600 368.181,194.185 368.542,194.900 368.835 C 195.615 369.127,196.438 369.599,196.729 369.883 C 197.019 370.167,197.514 370.400,197.829 370.400 C 198.143 370.400,198.400 370.580,198.400 370.800 C 198.400 371.754,202.739 370.771,203.600 369.621 C 203.710 369.475,204.385 369.118,205.100 368.829 C 205.815 368.540,206.400 368.181,206.400 368.032 C 206.400 367.883,207.030 367.533,207.800 367.254 C 208.570 366.976,209.200 366.616,209.200 366.454 C 209.200 366.293,209.830 365.933,210.600 365.654 C 211.370 365.376,212.000 365.001,212.000 364.821 C 212.000 364.641,212.374 364.396,212.830 364.276 C 213.332 364.145,213.630 363.771,213.584 363.330 C 213.542 362.928,213.529 296.393,213.554 215.473 L 213.600 68.346 214.481 68.626 C 214.966 68.780,215.609 69.152,215.909 69.452 C 216.210 69.753,216.893 70.109,217.428 70.243 C 217.963 70.377,218.400 70.625,218.400 70.795 C 218.400 70.964,218.985 71.342,219.700 71.635 C 220.415 71.927,221.238 72.399,221.529 72.683 C 221.819 72.967,222.314 73.200,222.629 73.200 C 222.943 73.200,223.200 73.368,223.200 73.574 C 223.200 73.780,223.830 74.176,224.600 74.454 C 225.370 74.733,226.000 75.093,226.000 75.254 C 226.000 75.416,226.630 75.776,227.400 76.054 C 228.170 76.333,228.800 76.683,228.800 76.832 C 228.800 76.981,229.340 77.327,230.000 77.600 L 231.200 78.097 231.243 214.349 C 231.266 289.287,231.311 350.960,231.343 351.400 C 231.413 352.378,233.602 352.734,234.450 351.905 C 234.752 351.609,235.585 351.127,236.300 350.835 C 237.015 350.542,237.600 350.181,237.600 350.032 C 237.600 349.883,238.230 349.533,239.000 349.254 C 239.770 348.976,240.400 348.580,240.400 348.374 C 240.400 348.168,240.657 348.000,240.971 348.000 C 241.286 348.000,241.781 347.767,242.071 347.483 C 242.362 347.199,243.185 346.727,243.900 346.435 C 244.615 346.142,245.200 345.781,245.200 345.632 C 245.200 345.483,245.830 345.133,246.600 344.854 C 247.370 344.576,248.000 344.180,248.000 343.974 C 248.000 343.768,248.257 343.600,248.571 343.600 C 248.886 343.600,249.381 343.367,249.671 343.083 C 249.962 342.799,250.785 342.327,251.500 342.035 C 252.215 341.742,252.800 341.381,252.800 341.232 C 252.800 341.083,253.430 340.733,254.200 340.454 C 254.970 340.176,255.600 339.780,255.600 339.574 C 255.600 339.368,255.842 339.200,256.139 339.200 C 256.435 339.200,257.065 338.864,257.538 338.454 L 258.398 337.708 258.398 200.000 L 258.398 62.292 257.538 61.546 C 257.065 61.136,256.435 60.800,256.139 60.800 C 255.842 60.800,255.600 60.632,255.600 60.426 C 255.600 60.220,254.970 59.824,254.200 59.546 C 253.430 59.267,252.800 58.917,252.800 58.768 C 252.800 58.619,252.215 58.258,251.500 57.965 C 250.785 57.673,249.962 57.201,249.671 56.917 C 249.381 56.633,248.886 56.400,248.571 56.400 C 248.257 56.400,248.000 56.232,248.000 56.026 C 248.000 55.820,247.370 55.424,246.600 55.146 C 245.830 54.867,245.200 54.517,245.200 54.368 C 245.200 54.219,244.615 53.858,243.900 53.565 C 243.185 53.273,242.362 52.801,242.071 52.517 C 241.781 52.233,241.286 52.000,240.971 52.000 C 240.657 52.000,240.400 51.832,240.400 51.626 C 240.400 51.420,239.770 51.024,239.000 50.746 C 238.230 50.467,237.600 50.107,237.600 49.946 C 237.600 49.784,236.970 49.424,236.200 49.146 C 235.430 48.867,234.800 48.517,234.800 48.368 C 234.800 48.219,234.215 47.858,233.500 47.565 C 232.785 47.273,231.962 46.801,231.671 46.517 C 231.381 46.233,230.886 46.000,230.571 46.000 C 230.257 46.000,230.000 45.832,230.000 45.626 C 230.000 45.420,229.370 45.024,228.600 44.746 C 227.830 44.467,227.200 44.107,227.200 43.946 C 227.200 43.784,226.570 43.424,225.800 43.146 C 225.030 42.867,224.400 42.517,224.400 42.368 C 224.400 42.219,223.815 41.858,223.100 41.565 C 222.385 41.273,221.562 40.801,221.271 40.517 C 220.981 40.233,220.486 40.000,220.171 40.000 C 219.857 40.000,219.600 39.832,219.600 39.626 C 219.600 39.420,218.970 39.024,218.200 38.746 C 217.430 38.467,216.800 38.117,216.800 37.968 C 216.800 37.819,216.215 37.458,215.500 37.165 C 214.785 36.873,213.962 36.401,213.671 36.117 C 213.381 35.833,212.886 35.600,212.571 35.600 C 212.257 35.600,212.000 35.432,212.000 35.226 C 212.000 35.020,211.370 34.624,210.600 34.346 C 209.830 34.067,209.200 33.707,209.200 33.546 C 209.200 33.384,208.570 33.024,207.800 32.746 C 207.030 32.467,206.400 32.117,206.400 31.968 C 206.400 31.819,205.815 31.460,205.100 31.171 C 204.385 30.882,203.710 30.525,203.600 30.379 C 202.739 29.229,198.400 28.246,198.400 29.200 M120.800 73.975 C 120.800 74.209,120.543 74.400,120.229 74.400 C 119.914 74.400,119.419 74.633,119.129 74.917 C 118.838 75.201,118.015 75.673,117.300 75.965 C 116.585 76.258,116.000 76.619,116.000 76.768 C 116.000 76.917,115.370 77.267,114.600 77.546 C 113.830 77.824,113.200 78.184,113.200 78.346 C 113.200 78.507,112.570 78.867,111.800 79.146 C 111.030 79.424,110.400 79.820,110.400 80.026 C 110.400 80.232,110.143 80.400,109.829 80.400 C 109.514 80.400,109.019 80.633,108.729 80.917 C 108.438 81.201,107.615 81.673,106.900 81.965 C 106.185 82.258,105.600 82.619,105.600 82.768 C 105.600 82.917,104.970 83.267,104.200 83.546 C 103.430 83.824,102.800 84.220,102.800 84.426 C 102.800 84.632,102.543 84.800,102.229 84.800 C 101.914 84.800,101.419 85.033,101.129 85.317 C 100.838 85.601,100.015 86.073,99.300 86.365 C 98.585 86.658,98.000 87.019,98.000 87.168 C 98.000 87.317,97.370 87.667,96.600 87.946 C 95.830 88.224,95.200 88.584,95.200 88.746 C 95.200 88.907,94.570 89.267,93.800 89.546 C 93.030 89.824,92.400 90.220,92.400 90.426 C 92.400 90.632,92.143 90.800,91.829 90.800 C 91.514 90.800,91.019 91.033,90.729 91.317 C 90.438 91.601,89.615 92.073,88.900 92.365 C 88.185 92.658,87.600 93.019,87.600 93.168 C 87.600 93.317,86.970 93.667,86.200 93.946 C 85.430 94.224,84.800 94.620,84.800 94.826 C 84.800 95.032,84.543 95.200,84.229 95.200 C 83.914 95.200,83.419 95.433,83.129 95.717 C 82.838 96.001,82.015 96.473,81.300 96.765 C 80.585 97.058,80.000 97.419,80.000 97.568 C 80.000 97.717,79.370 98.067,78.600 98.346 C 77.830 98.624,77.200 98.984,77.200 99.146 C 77.200 99.307,76.570 99.667,75.800 99.946 C 75.030 100.224,74.400 100.620,74.400 100.826 C 74.400 101.032,74.143 101.200,73.829 101.200 C 73.514 101.200,73.019 101.433,72.729 101.717 C 72.438 102.001,71.615 102.473,70.900 102.765 C 70.185 103.058,69.600 103.419,69.600 103.568 C 69.600 103.717,68.970 104.067,68.200 104.346 C 67.430 104.624,66.800 104.984,66.800 105.146 C 66.800 105.307,66.170 105.667,65.400 105.946 C 64.630 106.224,64.000 106.620,64.000 106.826 C 64.000 107.032,63.743 107.200,63.429 107.200 C 63.114 107.200,62.619 107.433,62.329 107.717 C 62.038 108.001,61.215 108.473,60.500 108.765 C 59.785 109.058,59.200 109.419,59.200 109.568 C 59.200 109.717,58.570 110.067,57.800 110.346 C 57.030 110.624,56.400 110.984,56.400 111.146 C 56.400 111.307,55.770 111.667,55.000 111.946 C 54.230 112.224,53.600 112.620,53.600 112.826 C 53.600 113.032,53.407 113.200,53.171 113.200 C 51.547 113.200,51.604 110.055,51.604 200.000 C 51.604 289.945,51.547 286.800,53.171 286.800 C 53.407 286.800,53.600 286.968,53.600 287.174 C 53.600 287.380,54.230 287.776,55.000 288.054 C 55.770 288.333,56.400 288.683,56.400 288.832 C 56.400 288.981,56.985 289.342,57.700 289.635 C 58.415 289.927,59.238 290.399,59.529 290.683 C 59.819 290.967,60.314 291.200,60.629 291.200 C 60.943 291.200,61.200 291.368,61.200 291.574 C 61.200 291.780,61.830 292.176,62.600 292.454 C 63.370 292.733,64.000 293.093,64.000 293.254 C 64.000 293.416,64.630 293.776,65.400 294.054 C 66.170 294.333,66.800 294.683,66.800 294.832 C 66.800 294.981,67.385 295.342,68.100 295.635 C 68.815 295.927,69.638 296.399,69.929 296.683 C 70.219 296.967,70.714 297.200,71.029 297.200 C 71.343 297.200,71.600 297.368,71.600 297.574 C 71.600 297.780,72.230 298.176,73.000 298.454 C 73.770 298.733,74.400 299.093,74.400 299.254 C 74.400 299.416,75.030 299.776,75.800 300.054 C 76.570 300.333,77.200 300.683,77.200 300.832 C 77.200 300.981,77.785 301.342,78.500 301.635 C 79.215 301.927,80.038 302.399,80.329 302.683 C 80.619 302.967,81.114 303.200,81.429 303.200 C 81.743 303.200,82.000 303.368,82.000 303.574 C 82.000 303.780,82.630 304.176,83.400 304.454 C 84.170 304.733,84.800 305.093,84.800 305.254 C 84.800 305.416,85.430 305.776,86.200 306.054 C 86.970 306.333,87.600 306.683,87.600 306.832 C 87.600 306.981,88.185 307.342,88.900 307.635 C 89.615 307.927,90.438 308.399,90.729 308.683 C 91.019 308.967,91.514 309.200,91.829 309.200 C 92.143 309.200,92.400 309.368,92.400 309.574 C 92.400 309.780,93.030 310.176,93.800 310.454 C 94.570 310.733,95.200 311.093,95.200 311.254 C 95.200 311.416,95.830 311.776,96.600 312.054 C 97.370 312.333,98.000 312.683,98.000 312.832 C 98.000 312.981,98.585 313.342,99.300 313.635 C 100.015 313.927,100.838 314.399,101.129 314.683 C 101.419 314.967,101.914 315.200,102.229 315.200 C 102.543 315.200,102.800 315.368,102.800 315.574 C 102.800 315.780,103.430 316.176,104.200 316.454 C 104.970 316.733,105.600 317.083,105.600 317.232 C 105.600 317.381,106.185 317.742,106.900 318.035 C 107.615 318.327,108.438 318.799,108.729 319.083 C 109.019 319.367,109.514 319.600,109.829 319.600 C 110.143 319.600,110.400 319.768,110.400 319.974 C 110.400 320.180,111.030 320.576,111.800 320.854 C 112.570 321.133,113.200 321.493,113.200 321.654 C 113.200 321.816,113.830 322.176,114.600 322.454 C 115.370 322.733,116.000 323.083,116.000 323.232 C 116.000 323.381,116.585 323.742,117.300 324.035 C 118.015 324.327,118.838 324.799,119.129 325.083 C 119.419 325.367,119.914 325.600,120.229 325.600 C 120.543 325.600,120.800 325.791,120.800 326.025 C 120.800 326.264,121.370 326.396,122.100 326.325 L 123.400 326.200 123.494 310.861 C 123.586 295.856,123.571 295.517,122.794 295.314 C 122.357 295.200,122.000 294.970,122.000 294.802 C 122.000 294.634,121.415 294.258,120.700 293.965 C 119.985 293.673,119.162 293.201,118.871 292.917 C 118.581 292.633,118.086 292.400,117.771 292.400 C 117.457 292.400,117.200 292.232,117.200 292.026 C 117.200 291.820,116.570 291.424,115.800 291.146 C 115.030 290.867,114.400 290.517,114.400 290.368 C 114.400 290.219,113.815 289.858,113.100 289.565 C 112.385 289.273,111.562 288.801,111.271 288.517 C 110.981 288.233,110.486 288.000,110.171 288.000 C 109.857 288.000,109.600 287.832,109.600 287.626 C 109.600 287.420,108.970 287.024,108.200 286.746 C 107.430 286.467,106.800 286.107,106.800 285.946 C 106.800 285.784,106.170 285.424,105.400 285.146 C 104.630 284.867,104.000 284.517,104.000 284.368 C 104.000 284.219,103.415 283.858,102.700 283.565 C 101.985 283.273,101.162 282.801,100.871 282.517 C 100.581 282.233,100.086 282.000,99.771 282.000 C 99.457 282.000,99.200 281.832,99.200 281.626 C 99.200 281.420,98.570 281.024,97.800 280.746 C 97.030 280.467,96.400 280.107,96.400 279.946 C 96.400 279.784,95.770 279.424,95.000 279.146 C 94.230 278.867,93.600 278.517,93.600 278.368 C 93.600 278.219,93.015 277.858,92.300 277.565 C 91.585 277.273,90.762 276.801,90.471 276.517 C 90.181 276.233,89.686 276.000,89.371 276.000 C 89.057 276.000,88.800 275.832,88.800 275.626 C 88.800 275.420,88.170 275.024,87.400 274.746 C 86.630 274.467,86.000 274.107,86.000 273.946 C 86.000 273.784,85.370 273.424,84.600 273.146 C 83.830 272.867,83.200 272.507,83.200 272.346 C 83.200 272.184,82.570 271.824,81.800 271.546 C 81.030 271.267,80.400 270.908,80.400 270.747 C 80.400 270.586,80.040 270.340,79.600 270.200 C 78.810 269.949,78.800 269.595,78.800 241.773 L 78.800 213.600 100.300 213.557 C 112.125 213.534,122.160 213.489,122.600 213.457 C 123.383 213.401,123.400 213.114,123.400 200.000 C 123.400 186.886,123.383 186.599,122.600 186.543 C 122.160 186.511,112.125 186.466,100.300 186.443 L 78.800 186.400 78.800 158.249 L 78.800 130.097 80.000 129.600 C 80.660 129.327,81.200 128.945,81.200 128.751 C 81.200 128.558,81.457 128.400,81.771 128.400 C 82.086 128.400,82.581 128.167,82.871 127.883 C 83.162 127.599,83.985 127.127,84.700 126.835 C 85.415 126.542,86.000 126.181,86.000 126.032 C 86.000 125.883,86.630 125.533,87.400 125.254 C 88.170 124.976,88.800 124.616,88.800 124.454 C 88.800 124.293,89.430 123.933,90.200 123.654 C 90.970 123.376,91.600 122.980,91.600 122.774 C 91.600 122.568,91.857 122.400,92.171 122.400 C 92.486 122.400,92.981 122.167,93.271 121.883 C 93.562 121.599,94.385 121.127,95.100 120.835 C 95.815 120.542,96.400 120.181,96.400 120.032 C 96.400 119.883,97.030 119.533,97.800 119.254 C 98.570 118.976,99.200 118.580,99.200 118.374 C 99.200 118.168,99.457 118.000,99.771 118.000 C 100.086 118.000,100.581 117.767,100.871 117.483 C 101.162 117.199,101.985 116.727,102.700 116.435 C 103.415 116.142,104.000 115.781,104.000 115.632 C 104.000 115.483,104.630 115.133,105.400 114.854 C 106.170 114.576,106.800 114.216,106.800 114.054 C 106.800 113.893,107.430 113.533,108.200 113.254 C 108.970 112.976,109.600 112.580,109.600 112.374 C 109.600 112.168,109.857 112.000,110.171 112.000 C 110.486 112.000,110.981 111.767,111.271 111.483 C 111.562 111.199,112.385 110.727,113.100 110.435 C 113.815 110.142,114.400 109.781,114.400 109.632 C 114.400 109.483,115.030 109.133,115.800 108.854 C 116.570 108.576,117.200 108.216,117.200 108.054 C 117.200 107.893,117.830 107.533,118.600 107.254 C 119.370 106.976,120.000 106.580,120.000 106.374 C 120.000 106.168,120.257 106.000,120.571 106.000 C 120.886 106.000,121.381 105.765,121.671 105.478 C 121.962 105.190,122.512 104.837,122.894 104.692 C 123.538 104.449,123.581 103.333,123.494 89.115 L 123.400 73.800 122.100 73.675 C 121.370 73.604,120.800 73.736,120.800 73.975 M276.586 74.100 C 276.482 74.375,276.442 131.201,276.498 200.380 L 276.600 326.160 277.624 326.160 C 278.762 326.160,281.200 325.255,281.200 324.832 C 281.200 324.683,281.830 324.333,282.600 324.054 C 283.370 323.776,284.000 323.416,284.000 323.254 C 284.000 323.093,284.630 322.733,285.400 322.454 C 286.170 322.176,286.800 321.816,286.800 321.654 C 286.800 321.493,287.430 321.133,288.200 320.854 C 288.970 320.576,289.600 320.180,289.600 319.974 C 289.600 319.768,289.857 319.600,290.171 319.600 C 290.486 319.600,290.981 319.367,291.271 319.083 C 291.562 318.799,292.385 318.327,293.100 318.035 C 293.815 317.742,294.400 317.381,294.400 317.232 C 294.400 317.083,295.030 316.733,295.800 316.454 C 296.570 316.176,297.200 315.816,297.200 315.654 C 297.200 315.493,297.830 315.133,298.600 314.854 C 299.370 314.576,300.000 314.180,300.000 313.974 C 300.000 313.768,300.257 313.600,300.571 313.600 C 300.886 313.600,301.381 313.365,301.671 313.078 C 301.962 312.790,302.514 312.437,302.897 312.291 C 303.556 312.042,303.594 306.932,303.598 216.346 C 303.601 163.720,303.669 120.597,303.750 120.517 C 303.960 120.306,306.103 121.298,306.729 121.895 C 307.019 122.173,307.514 122.400,307.829 122.400 C 308.143 122.400,308.400 122.568,308.400 122.774 C 308.400 122.980,309.030 123.376,309.800 123.654 C 310.570 123.933,311.200 124.293,311.200 124.454 C 311.200 124.616,311.830 124.976,312.600 125.254 C 313.370 125.533,314.000 125.883,314.000 126.032 C 314.000 126.181,314.585 126.542,315.300 126.835 C 316.015 127.127,316.838 127.599,317.129 127.883 C 317.419 128.167,317.914 128.400,318.229 128.400 C 318.543 128.400,318.800 128.558,318.800 128.751 C 318.800 128.945,319.340 129.327,320.000 129.600 L 321.200 130.097 321.243 214.349 C 321.291 311.214,321.151 300.165,322.338 300.333 C 323.318 300.471,325.600 299.701,325.600 299.232 C 325.600 299.083,326.230 298.733,327.000 298.454 C 327.770 298.176,328.400 297.780,328.400 297.574 C 328.400 297.368,328.657 297.200,328.971 297.200 C 329.286 297.200,329.781 296.967,330.071 296.683 C 330.362 296.399,331.185 295.927,331.900 295.635 C 332.615 295.342,333.200 294.981,333.200 294.832 C 333.200 294.683,333.830 294.333,334.600 294.054 C 335.370 293.776,336.000 293.380,336.000 293.174 C 336.000 292.968,336.257 292.800,336.571 292.800 C 336.886 292.800,337.381 292.567,337.671 292.283 C 337.962 291.999,338.785 291.527,339.500 291.235 C 340.215 290.942,340.800 290.581,340.800 290.432 C 340.800 290.283,341.430 289.933,342.200 289.654 C 342.970 289.376,343.600 289.016,343.600 288.854 C 343.600 288.693,344.230 288.333,345.000 288.054 C 345.770 287.776,346.400 287.380,346.400 287.174 C 346.400 286.968,346.593 286.800,346.829 286.800 C 348.453 286.800,348.396 289.946,348.396 199.976 L 348.396 114.291 347.537 113.545 C 347.064 113.135,346.435 112.800,346.139 112.800 C 345.842 112.800,345.600 112.623,345.600 112.408 C 345.600 112.192,345.150 111.902,344.600 111.764 C 344.050 111.626,343.600 111.364,343.600 111.183 C 343.600 111.001,342.970 110.624,342.200 110.346 C 341.430 110.067,340.800 109.717,340.800 109.568 C 340.800 109.419,340.215 109.058,339.500 108.765 C 338.785 108.473,337.962 108.001,337.671 107.717 C 337.381 107.433,336.886 107.200,336.571 107.200 C 336.257 107.200,336.000 107.032,336.000 106.826 C 336.000 106.620,335.370 106.224,334.600 105.946 C 333.830 105.667,333.200 105.307,333.200 105.146 C 333.200 104.984,332.570 104.624,331.800 104.346 C 331.030 104.067,330.400 103.717,330.400 103.568 C 330.400 103.419,329.815 103.058,329.100 102.765 C 328.385 102.473,327.562 102.001,327.271 101.717 C 326.981 101.433,326.486 101.200,326.171 101.200 C 325.857 101.200,325.600 101.032,325.600 100.826 C 325.600 100.620,324.970 100.224,324.200 99.946 C 323.430 99.667,322.800 99.307,322.800 99.146 C 322.800 98.984,322.170 98.624,321.400 98.346 C 320.630 98.067,320.000 97.717,320.000 97.568 C 320.000 97.419,319.415 97.058,318.700 96.765 C 317.985 96.473,317.162 96.001,316.871 95.717 C 316.581 95.433,316.086 95.200,315.771 95.200 C 315.457 95.200,315.200 95.032,315.200 94.826 C 315.200 94.620,314.570 94.224,313.800 93.946 C 313.030 93.667,312.400 93.317,312.400 93.168 C 312.400 93.019,311.815 92.658,311.100 92.365 C 310.385 92.073,309.562 91.601,309.271 91.317 C 308.981 91.033,308.486 90.800,308.171 90.800 C 307.857 90.800,307.600 90.632,307.600 90.426 C 307.600 90.220,306.970 89.824,306.200 89.546 C 305.430 89.267,304.800 88.907,304.800 88.746 C 304.800 88.584,304.170 88.224,303.400 87.946 C 302.630 87.667,302.000 87.317,302.000 87.168 C 302.000 87.019,301.415 86.658,300.700 86.365 C 299.985 86.073,299.162 85.601,298.871 85.317 C 298.581 85.033,298.086 84.800,297.771 84.800 C 297.457 84.800,297.200 84.632,297.200 84.426 C 297.200 84.220,296.570 83.824,295.800 83.546 C 295.030 83.267,294.400 82.907,294.400 82.746 C 294.400 82.584,293.770 82.224,293.000 81.946 C 292.230 81.667,291.600 81.317,291.600 81.168 C 291.600 81.019,291.015 80.658,290.300 80.365 C 289.585 80.073,288.762 79.601,288.471 79.317 C 288.181 79.033,287.686 78.800,287.371 78.800 C 287.057 78.800,286.800 78.632,286.800 78.426 C 286.800 78.220,286.170 77.824,285.400 77.546 C 284.630 77.267,284.000 76.917,284.000 76.768 C 284.000 76.619,283.415 76.258,282.700 75.965 C 281.985 75.673,281.162 75.201,280.871 74.917 C 280.581 74.633,280.086 74.400,279.771 74.400 C 279.457 74.400,279.200 74.220,279.200 74.000 C 279.200 73.418,276.809 73.509,276.586 74.100 " stroke="none" fill="#54fc7c" fill-rule="evenodd"></path><path id="path1" d="" stroke="none" fill="#58fc7c" fill-rule="evenodd"></path><path id="path2" d="" stroke="none" fill="#58fc7c" fill-rule="evenodd"></path><path id="path3" d="" stroke="none" fill="#58fc7c" fill-rule="evenodd"></path></g></svg>